<svg xmlns="http://www.w3.org/2000/svg" width="213.54" height="243" viewBox="0 0 213.54 243">
  <defs>
    <style>
      .cls-1 {
        fill: #fff;
      }

      .cls-2 {
        fill: none;
        stroke: #707070;
      }

      .cls-3, .cls-4 {
        stroke: none;
      }

      .cls-4 {
        fill: #707070;
      }
    </style>
  </defs>
  <g id="network" transform="translate(-243.22 -351.5)">
    <g id="Path_1" data-name="Path 1" class="cls-1" transform="translate(325.006 452.047) rotate(-3)">
      <path class="cls-3" d="M 19.5 38.5 C 16.93479919433594 38.5 14.44659042358398 37.99771118164062 12.10449981689453 37.0070915222168 C 9.842049598693848 36.0501594543457 7.810060024261475 34.68011856079102 6.064970016479492 32.93503189086914 C 4.31988000869751 31.18993949890137 2.949840068817139 29.15794944763184 1.992910027503967 26.89550018310547 C 1.002290010452271 24.55340957641602 0.5 22.06520080566406 0.5 19.5 C 0.5 16.93479919433594 1.002290010452271 14.44659042358398 1.992910027503967 12.10449981689453 C 2.949840068817139 9.842049598693848 4.31988000869751 7.810060024261475 6.064970016479492 6.064970016479492 C 7.810060024261475 4.31988000869751 9.842049598693848 2.949840068817139 12.10449981689453 1.992910027503967 C 14.44659042358398 1.002290010452271 16.93479919433594 0.5 19.5 0.5 C 22.06520080566406 0.5 24.55340957641602 1.002290010452271 26.89550018310547 1.992910027503967 C 29.15794944763184 2.949840068817139 31.18993949890137 4.31988000869751 32.93503189086914 6.064970016479492 C 34.68011856079102 7.810060024261475 36.0501594543457 9.842049598693848 37.0070915222168 12.10449981689453 C 37.99771118164062 14.44659042358398 38.5 16.93479919433594 38.5 19.5 C 38.5 22.06520080566406 37.99771118164062 24.55340957641602 37.0070915222168 26.89550018310547 C 36.0501594543457 29.15794944763184 34.68011856079102 31.18993949890137 32.93503189086914 32.93503189086914 C 31.18993949890137 34.68011856079102 29.15794944763184 36.0501594543457 26.89550018310547 37.0070915222168 C 24.55340957641602 37.99771118164062 22.06520080566406 38.5 19.5 38.5 Z"/>
      <path class="cls-4" d="M 19.5 1 C 17.0020809173584 1 14.57939910888672 1.488998413085938 12.29927062988281 2.453411102294922 C 10.0964298248291 3.385139465332031 8.117860794067383 4.719188690185547 6.418529510498047 6.418529510498047 C 4.719188690185547 8.117860794067383 3.385139465332031 10.0964298248291 2.453411102294922 12.29927062988281 C 1.488998413085938 14.57939910888672 1 17.0020809173584 1 19.5 C 1 21.9979190826416 1.488998413085938 24.42060089111328 2.453411102294922 26.70072937011719 C 3.385139465332031 28.9035701751709 4.719188690185547 30.88214111328125 6.418529510498047 32.58147048950195 C 8.117860794067383 34.28081130981445 10.0964298248291 35.61486053466797 12.29927062988281 36.54658889770508 C 14.57939910888672 37.51100158691406 17.0020809173584 38 19.5 38 C 21.9979190826416 38 24.42060089111328 37.51100158691406 26.70072937011719 36.54658889770508 C 28.9035701751709 35.61486053466797 30.88214111328125 34.28081130981445 32.58147048950195 32.58147048950195 C 34.28081130981445 30.88214111328125 35.61486053466797 28.9035701751709 36.54658889770508 26.70072937011719 C 37.51100158691406 24.42060089111328 38 21.9979190826416 38 19.5 C 38 17.0020809173584 37.51100158691406 14.57939910888672 36.54658889770508 12.29927062988281 C 35.61486053466797 10.0964298248291 34.28081130981445 8.117860794067383 32.58147048950195 6.418529510498047 C 30.88214111328125 4.719188690185547 28.9035701751709 3.385139465332031 26.70072937011719 2.453411102294922 C 24.42060089111328 1.488998413085938 21.9979190826416 1 19.5 1 M 19.5 0 C 30.26955032348633 0 39 8.730449676513672 39 19.5 C 39 30.26955032348633 30.26955032348633 39 19.5 39 C 8.730449676513672 39 0 30.26955032348633 0 19.5 C 0 8.730449676513672 8.730449676513672 0 19.5 0 Z"/>
    </g>
    <path id="Path_6" data-name="Path 6" class="cls-2" d="M0,0V104" transform="translate(345.5 490.5)"/>
    <path id="Path_5" data-name="Path 5" class="cls-2" d="M0,0,95,58" transform="translate(361.5 480.5)"/>
    <path id="Path_7" data-name="Path 7" class="cls-2" d="M0,58,86,0" transform="translate(243.5 480.5)"/>
    <path id="Path_4" data-name="Path 4" class="cls-2" d="M72,0,0,84" transform="translate(361.5 374.5)"/>
    <path id="Path_2" data-name="Path 2" class="cls-2" d="M0,0,74,84" transform="translate(255.5 374.5)"/>
    <path id="Path_3" data-name="Path 3" class="cls-2" d="M0,0V99" transform="translate(345.5 351.5)"/>
  </g>
</svg>
